<svg width="221" height="333" viewBox="0 0 221 333" fill="none" xmlns="http://www.w3.org/2000/svg">
<g filter="url(#filter0_d)">
<path fill-rule="evenodd" clip-rule="evenodd" d="M110.059 28.7403C106.428 24.4779 103.97 19.2544 104.381 13.4012C105.564 -3.4634 129.04 0.2466 133.607 8.7584C138.173 17.2702 137.631 38.8611 131.729 40.3824C129.375 40.9891 124.361 39.5029 119.258 36.4271L122.461 59.0879H103.548L110.059 28.7403Z" fill="#57331F"/>
<path fill-rule="evenodd" clip-rule="evenodd" d="M120.204 15.2637C120.928 25.3485 122.843 30.3909 125.949 30.3909C130.608 30.3909 134.562 27.4329 136.606 27.4329C138.097 27.4329 137.764 29.2979 136.776 30.6807C135.961 31.8216 131.992 32.9213 131.992 34.69C131.992 36.4587 135.128 35.0904 135.128 36.1394C135.128 37.8745 135.679 41.137 132.667 41.137C129.62 41.137 120.881 40.0263 119.383 35.5028C118.417 32.5835 117.792 26.5341 117.509 17.3546C117.324 17.3327 117.136 17.3214 116.945 17.3214C114.333 17.3214 112.217 19.4383 112.217 22.0497C112.217 23.3753 112.762 24.5736 113.641 25.4321C112.547 26.9764 111.321 28.5896 109.916 30.2542C104.637 27.0874 100.721 17.817 105.881 8.91155C107.307 4.54889 110.536 2.21863 114.35 1.13662C117.439 -0.155616 120.646 -0.301317 123.353 0.473364C128.66 0.928535 133.398 2.54667 134.741 3.50764C134.741 8.53163 133.768 10.0222 125.453 9.89084C123.41 10.9698 121.84 12.8278 120.204 15.2637Z" fill="#191847"/>
<path fill-rule="evenodd" clip-rule="evenodd" d="M102.031 124.301L140.709 222.198L166.651 304.961H176.895L137.236 124.301L102.031 124.301Z" fill="#3D2216"/>
<path fill-rule="evenodd" clip-rule="evenodd" d="M94.2422 124.301C93.8304 158.703 87.8238 205.019 86.8641 207.163C86.2243 208.593 64.1384 226.773 20.6064 261.703L27.662 269.254C79.0257 239.305 105.896 222.334 108.273 218.339C111.838 212.348 123.446 157.212 132.765 124.301H94.2422Z" fill="#57331F"/>
<path fill-rule="evenodd" clip-rule="evenodd" d="M19.6626 259.183C17.293 260.02 15.6607 260.815 14.7656 261.566C13.677 262.479 12.2406 263.993 10.4565 266.108C11.5161 267.371 21.0395 278.721 39.0267 300.157C42.6942 298.587 43.8448 296.752 42.4785 294.65C41.1121 292.548 39.9939 290.787 39.1238 289.369L32.8997 267.623C32.78 267.205 32.3437 266.963 31.9253 267.082C31.9181 267.084 31.911 267.087 31.9039 267.089L28.5827 268.142C26.2785 267.068 24.6635 265.98 23.7377 264.876C22.9855 263.98 22.3087 262.438 21.7074 260.251L21.7075 260.251C21.4767 259.412 20.6092 258.918 19.7699 259.149C19.7337 259.159 19.6979 259.17 19.6626 259.183Z" fill="#E4E4E4"/>
<path fill-rule="evenodd" clip-rule="evenodd" d="M162.457 301.14C161.575 303.494 161.134 305.255 161.134 306.423C161.134 307.844 161.371 309.918 161.844 312.644C163.493 312.644 178.309 312.644 206.292 312.644C207.447 308.826 206.78 306.764 204.292 306.46C201.803 306.156 199.736 305.881 198.09 305.635L177.431 296.426C177.034 296.248 176.568 296.427 176.39 296.824C176.387 296.831 176.384 296.838 176.382 296.845L175.054 300.066C172.75 301.141 170.878 301.678 169.438 301.678C168.267 301.678 166.651 301.206 164.589 300.261L164.589 300.261C163.798 299.898 162.863 300.245 162.5 301.037C162.484 301.071 162.47 301.105 162.457 301.14Z" fill="#E4E4E4"/>
<path fill-rule="evenodd" clip-rule="evenodd" d="M128.036 296.437L176.741 291.151L140.645 124.301H97.022L128.036 296.437Z" fill="#69A1AC"/>
<path fill-rule="evenodd" clip-rule="evenodd" d="M30.6809 249.522L62.6284 287.337C96.278 250.586 115.896 226.605 121.482 215.396C127.068 204.187 132.089 173.822 136.546 124.301H87.4347C85 167.867 83.3589 190.664 82.5113 192.692C81.6637 194.719 64.3869 213.662 30.6809 249.522Z" fill="#89C5CC"/>
<path fill-rule="evenodd" clip-rule="evenodd" d="M170.964 114.529L193.288 136.306C199.783 139.077 205.105 142.136 209.254 145.484C210.187 146.61 211.202 148.766 206.813 147.801C202.423 146.836 197.762 146.019 196.937 147.446C196.112 148.874 198.543 151.061 197.019 152.929C196.002 154.175 192.584 150.213 186.763 141.044L163.549 127.358L170.964 114.529ZM61.8008 94.819L79.057 94.8837C65.9141 137.465 58.9375 159.76 58.127 161.768C56.3035 166.287 60.1623 173.17 61.8125 176.868C56.4379 179.273 57.0106 170.367 50.2308 173.521C44.0425 176.4 39.335 181.617 32.1854 177.205C31.3063 176.663 30.3431 174.621 32.6704 173.025C38.4687 169.049 46.8243 162.091 47.9533 159.8C49.4929 156.677 54.1087 135.016 61.8008 94.819Z" fill="#57331F"/>
<path fill-rule="evenodd" clip-rule="evenodd" d="M114.383 45.8673L121.198 44.6985C131.932 82.6445 187.087 108.51 190.473 122.695C191.714 127.897 187.97 130.527 189.904 132.111L181.047 138.595C179.547 136.845 176.346 140.046 169.662 137.807C162.978 135.568 114.383 90.7985 114.383 45.8673Z" fill="#191847"/>
<path fill-rule="evenodd" clip-rule="evenodd" d="M125.846 50.9121C125.061 101.15 154.102 113.965 147.633 134.118C142.291 150.76 91.1615 168.65 82.3138 152.337C78.7324 145.734 77.1075 137.747 76.9231 129.064C74.6619 135.735 72.8734 141.478 71.5579 146.293C69.2883 154.599 60.4898 155.919 60.4898 159.119L48.898 155.919C49.6842 151.572 44.2195 149.455 45.6847 139.743C52.2498 96.2295 69.889 64.6876 98.6023 45.1178L98.8994 40.8697C99.0208 39.133 100.527 37.8236 102.264 37.9451L123.489 39.4293C125.226 39.5507 126.535 41.057 126.414 42.7937L125.846 50.9121Z" fill="#2F3676"/>
</g>
<defs>
<filter id="filter0_d" x="0.456543" y="0" width="219.61" height="332.644" filterUnits="userSpaceOnUse" color-interpolation-filters="sRGB">
<feFlood flood-opacity="0" result="BackgroundImageFix"/>
<feColorMatrix in="SourceAlpha" type="matrix" values="0 0 0 0 0 0 0 0 0 0 0 0 0 0 0 0 0 0 127 0"/>
<feOffset dy="10"/>
<feGaussianBlur stdDeviation="5"/>
<feColorMatrix type="matrix" values="0 0 0 0 0 0 0 0 0 0 0 0 0 0 0 0 0 0 0.25 0"/>
<feBlend mode="normal" in2="BackgroundImageFix" result="effect1_dropShadow"/>
<feBlend mode="normal" in="SourceGraphic" in2="effect1_dropShadow" result="shape"/>
</filter>
</defs>
</svg>
