<svg width="281" height="445" viewBox="0 0 281 445" fill="none" xmlns="http://www.w3.org/2000/svg">
<path fill-rule="evenodd" clip-rule="evenodd" d="M97.9796 186.826C99.8904 213.381 222.982 291.562 223.7 293.755C224.019 294.73 211.248 325.548 185.386 386.21L196.146 390.467C235.814 326.223 254.629 290.678 252.591 283.832C249.674 274.031 217.839 241.79 157.086 187.109L97.9796 186.826Z" fill="#B28B67"/>
<path fill-rule="evenodd" clip-rule="evenodd" d="M188.218 372.51L205.785 379.022C242.829 336.462 257.349 301.346 254.701 283.454C252.936 271.526 221.211 239.338 159.526 186.892L96.72 186.892C98.8628 248.389 212.953 293.99 214.479 296.61C216.005 299.231 200.987 324.897 188.218 372.51Z" fill="#2F3676"/>
<path fill-rule="evenodd" clip-rule="evenodd" d="M181.324 384.131C179.142 386.727 177.786 388.773 177.256 390.269C176.612 392.089 175.972 394.857 175.337 398.573C177.424 399.355 196.181 406.378 231.608 419.643C234.8 415.301 234.89 412.344 231.877 410.775C228.865 409.205 226.372 407.873 224.4 406.779L202.418 385.191C201.995 384.775 201.325 384.783 200.92 385.208C200.913 385.216 200.906 385.223 200.9 385.23L197.759 388.726C194.355 389.011 191.742 388.812 189.918 388.129C188.437 387.574 186.605 386.203 184.423 384.015L184.423 384.015C183.585 383.175 182.244 383.177 181.426 384.018C181.391 384.054 181.357 384.092 181.324 384.131Z" fill="#E4E4E4"/>
<path fill-rule="evenodd" clip-rule="evenodd" d="M112.133 186.826L57.2987 320.872L3.40552 434.197H16.1207L155.234 186.826H112.133Z" fill="#997659"/>
<path fill-rule="evenodd" clip-rule="evenodd" d="M2.64497 429.072C1.45946 432.307 0.866699 434.727 0.866699 436.333C0.866699 438.287 1.18504 441.137 1.82172 444.885C4.0385 444.885 23.961 444.885 61.5893 444.885C63.1425 439.636 62.2459 436.802 58.8996 436.384C55.5534 435.965 52.7735 435.587 50.5602 435.25L22.7808 422.591C22.2463 422.347 21.6198 422.593 21.3815 423.139C21.3774 423.148 21.3734 423.158 21.3696 423.167L19.584 427.595C16.4862 429.072 13.9689 429.811 12.0322 429.811C10.4586 429.811 8.28548 429.162 5.51282 427.862L5.51283 427.862C4.44881 427.364 3.19084 427.841 2.70307 428.929C2.68205 428.976 2.66267 429.023 2.64497 429.072Z" fill="#E4E4E4"/>
<path fill-rule="evenodd" clip-rule="evenodd" d="M8.27222 410.655L36.5254 416.05C58.3707 383.347 149.794 249.251 159.818 186.826H96.9199C63.4456 231.953 29.0953 377.411 8.27222 410.655Z" fill="#5C63AB"/>
<path fill-rule="evenodd" clip-rule="evenodd" d="M131.625 56.3087C128.192 49.4565 126.608 41.7388 128.997 34.1703C135.881 12.3634 165.607 25.2577 168.929 38.0255C172.25 50.7932 164.716 79.0431 156.468 79.0334C153.179 79.0295 147.049 75.3618 141.304 69.5701L138.362 100.507L113.47 94.0552L131.625 56.3087Z" fill="#B28B67"/>
<path fill-rule="evenodd" clip-rule="evenodd" d="M170.106 43.6179C170.211 42.104 170 40.3386 169.848 38.8415C169.651 36.9115 169.093 35.0731 168.418 33.3021C167.147 29.9678 165.419 26.8074 163.343 24.0188C159.551 18.9251 154.073 15.1388 147.98 14.3394C144.904 13.9358 141.728 14.3335 138.8 15.6036C136.154 16.7511 133.398 18.7336 130.466 18.1714C127.276 17.5595 125.068 14.0296 122.963 11.6584C120.589 8.98524 117.908 6.79187 114.719 5.38612C109.378 3.03145 103.696 3.57331 98.7559 7.1723C93.4986 11.0022 88.8064 17.3965 89.9259 24.5552C90.134 25.886 90.5303 27.0648 91.2472 28.1419C91.9047 29.1297 92.9951 30.2813 93.0401 31.6004C93.0878 33.0025 91.5958 34.4108 90.8904 35.483C89.8798 37.0191 88.9567 38.6671 88.6893 40.551C88.2502 43.6449 89.443 47.014 90.958 49.5124C92.4997 52.0549 94.7173 53.8566 97.2555 55.0778C98.9503 55.8933 100.723 56.5591 102.565 56.8918C103.479 57.057 104.333 57.0105 105.251 57.0354C106.145 57.0596 106.563 57.4075 107.169 58.0592C109.982 61.0871 113.368 62.8505 117.298 63.5212C120.615 64.0871 124.553 64.2612 127.746 62.706C131.291 60.9787 132.059 57.5346 132.249 53.6924C132.896 54.2475 134.873 54.9977 134.01 53.2268C133.668 52.5254 132.816 52.0562 132.281 51.5575C131.658 50.9768 131.052 50.2777 130.649 49.4888C129.025 46.3036 132.578 41.5896 135.621 41.4461C140.141 41.2329 139.64 47.4553 142.271 49.7762C143.783 51.1107 145.882 50.3607 147.475 49.453C149.609 48.237 151.322 46.3387 152.882 44.36C154.167 42.7305 155.4 41.0601 156.699 39.4439C157.306 38.6892 159.275 36.6212 158.814 35.4721C161.973 35.645 165.025 37.7686 167.222 40.088C168.13 41.0467 168.767 42.0097 169.049 43.3617C169.109 43.6514 169.191 44.4874 169.518 44.6051C170.128 44.8245 170.079 43.9983 170.106 43.6179Z" fill="#191847"/>
<path fill-rule="evenodd" clip-rule="evenodd" d="M199.043 177.512L232.423 203.35C241.549 206.031 249.156 209.298 255.244 213.151C256.675 214.523 258.385 217.279 252.367 216.699C246.349 216.118 239.994 215.782 239.127 217.856C238.261 219.929 241.866 222.493 240.138 225.28C238.986 227.138 233.771 222.331 224.494 210.859L191.257 196.145L199.043 177.512ZM69.2455 176.018L91.3886 176.51C76.9653 221.112 69.1858 244.776 68.0501 247.5C65.4948 253.63 70.5264 263.129 72.6609 268.223C65.3789 271.377 66.3524 259.222 57.1636 263.365C48.7764 267.148 42.3272 274.16 32.8139 267.957C31.6443 267.194 30.3957 264.38 33.5617 262.257C41.4494 256.967 52.8442 247.664 54.4146 244.562C56.5562 240.332 61.4998 217.484 69.2455 176.018Z" fill="#B28B67"/>
<path fill-rule="evenodd" clip-rule="evenodd" d="M133.77 82.624L142.961 81.1931C176.467 111.674 189.475 169.295 230.648 200.444L220.404 212.902C148.247 202.483 131.494 132.183 133.77 82.624Z" fill="#E87613"/>
<path fill-rule="evenodd" clip-rule="evenodd" d="M91.8717 198.993C128.626 199.663 155.662 200.156 172.98 200.471C176.686 200.539 176.078 195.087 175.589 192.332C169.935 160.543 146.369 125.956 147.122 80.8649L123.789 76.7098C103.91 107.989 96.5667 146.812 91.8717 198.993Z" fill="#DDE3E9"/>
<path fill-rule="evenodd" clip-rule="evenodd" d="M94.0649 107.285C90.6832 106.231 88.0309 103.866 86.1078 100.192C77.818 84.3531 81.0509 75.7748 90.2377 73.1031C99.4246 70.4314 107.477 76.4262 122.039 76.6915C122.831 76.706 123.555 76.7697 124.212 76.8826L131.53 77.4409C151.335 150.21 156.324 198.61 146.496 222.642L82.6503 221.479C78.7176 230.374 74.9717 237.851 71.4126 243.908L54.0158 243.591C53.2781 189.759 66.6278 144.324 94.0649 107.285Z" fill="#FF9B21"/>
<path fill-rule="evenodd" clip-rule="evenodd" d="M97.1634 184.57C98.8858 201.68 101.942 214.131 106.332 221.923L82.6402 221.491C87.2272 211.115 92.0683 198.808 97.1634 184.57Z" fill="black" fill-opacity="0.1"/>
</svg>
