<svg width="265" height="420" viewBox="0 0 265 420" fill="none" xmlns="http://www.w3.org/2000/svg">
<path fill-rule="evenodd" clip-rule="evenodd" d="M128.883 39.7613C124.182 34.1206 121 27.2078 121.532 19.4617C123.064 -2.85673 153.457 2.05304 159.369 13.3175C165.281 24.5819 164.578 53.1551 156.937 55.1684C153.89 55.9713 147.399 54.0045 140.792 49.9339L144.939 79.9231H120.454L128.883 39.7613Z" fill="#B28B67"/>
<path fill-rule="evenodd" clip-rule="evenodd" d="M148.57 14.9512C145.247 16.8512 142.883 20.4114 140.036 25.0813C139.343 24.8027 138.588 24.6497 137.798 24.6497C134.417 24.6497 131.677 27.4513 131.677 30.9071C131.677 32.6615 132.383 34.2472 133.521 35.3834C132.104 37.4271 130.517 39.562 128.698 41.7649C121.91 37.6019 116.861 25.4688 123.343 13.7559C128.919 -9.70591 160.517 4.85659 166.596 0.899655C167.925 9.41355 163.639 16.2785 148.57 14.9512Z" fill="#191847"/>
<path fill-rule="evenodd" clip-rule="evenodd" d="M119.468 170.462L169.542 300.018L203.127 409.546H216.389L165.045 170.462L119.468 170.462Z" fill="#997659"/>
<path fill-rule="evenodd" clip-rule="evenodd" d="M109.385 170.462C108.852 215.989 101.075 277.283 99.833 280.121C99.0048 282.013 70.4119 306.072 14.0544 352.299L23.1887 362.291C89.6853 322.657 124.472 300.198 127.549 294.912C132.165 286.982 147.192 214.017 159.257 170.462H109.385Z" fill="#B28B67"/>
<path fill-rule="evenodd" clip-rule="evenodd" d="M12.8619 348.974C9.7888 350.089 7.67129 351.145 6.50942 352.142C5.09631 353.355 3.23101 355.364 0.913526 358.169C2.28383 359.839 14.599 374.846 37.859 403.189C42.6162 401.101 44.1119 398.667 42.3461 395.887C40.5804 393.106 39.1354 390.778 38.0112 388.901L29.9974 360.119C29.8432 359.565 29.2784 359.246 28.7358 359.405C28.7265 359.408 28.7172 359.411 28.708 359.414L24.4011 360.817C21.4173 359.401 19.3269 357.963 18.1297 356.504C17.1569 355.319 16.2836 353.279 15.5096 350.384L15.5096 350.384C15.2126 349.273 14.0895 348.622 13.0012 348.93C12.9542 348.943 12.9078 348.958 12.8619 348.974Z" fill="#E4E4E4"/>
<path fill-rule="evenodd" clip-rule="evenodd" d="M197.697 404.49C196.556 407.605 195.985 409.935 195.985 411.481C195.985 413.362 196.291 416.106 196.904 419.714C199.039 419.714 218.219 419.714 254.447 419.714C255.942 414.661 255.079 411.933 251.857 411.53C248.635 411.127 245.959 410.763 243.828 410.438L217.083 398.25C216.568 398.016 215.965 398.252 215.736 398.778C215.732 398.787 215.728 398.796 215.724 398.805L214.005 403.068C211.023 404.491 208.599 405.202 206.735 405.202C205.22 405.202 203.127 404.577 200.458 403.326L200.458 403.326C199.434 402.846 198.222 403.305 197.753 404.352C197.733 404.398 197.714 404.443 197.697 404.49Z" fill="#E4E4E4"/>
<path fill-rule="evenodd" clip-rule="evenodd" d="M153.136 398.265L216.19 391.27L169.459 170.462H112.984L153.136 398.265Z" fill="#69A1AC"/>
<path fill-rule="evenodd" clip-rule="evenodd" d="M27.0969 336.179L68.4569 386.223C112.02 337.586 137.418 305.851 144.65 291.017C151.882 276.183 158.383 235.998 164.153 170.462H100.572C97.4197 228.117 95.295 258.287 94.1977 260.97C93.1003 263.653 70.7334 288.722 27.0969 336.179Z" fill="#89C5CC"/>
<path fill-rule="evenodd" clip-rule="evenodd" d="M211.517 157.856L241.501 187.563C250.225 191.342 257.373 195.515 262.945 200.083C264.198 201.618 265.562 204.559 259.666 203.243C253.771 201.927 247.511 200.811 246.403 202.759C245.295 204.706 248.56 207.69 246.512 210.239C245.147 211.938 240.555 206.533 232.737 194.026L201.559 175.356L211.517 157.856ZM64.8994 130.969L88.0764 131.058C70.4241 189.143 61.0536 219.556 59.9651 222.296C57.516 228.46 62.6987 237.849 64.9151 242.894C57.6965 246.175 58.4656 234.025 49.3596 238.328C41.048 242.255 34.7255 249.371 25.1226 243.353C23.942 242.614 22.6483 239.828 25.7742 237.651C33.5619 232.228 44.7844 222.736 46.3007 219.611C48.3685 215.351 54.5681 185.803 64.8994 130.969Z" fill="#B28B67"/>
<path fill-rule="evenodd" clip-rule="evenodd" d="M135.524 64.1939L144.676 62.5995C159.094 114.362 233.172 149.645 237.72 168.996C239.388 176.092 234.359 179.679 236.957 181.84L225.06 190.685C223.046 188.298 218.747 192.665 209.769 189.61C200.791 186.556 135.524 125.485 135.524 64.1939Z" fill="#DB2721"/>
<path fill-rule="evenodd" clip-rule="evenodd" d="M150.919 71.0755C149.864 139.605 188.87 157.086 180.181 184.577C173.007 207.279 104.334 231.684 92.4506 209.43C87.6404 200.423 85.458 189.528 85.2103 177.684C82.1732 186.783 79.7711 194.617 78.0042 201.185C74.956 212.515 63.1386 214.316 63.1386 218.681L47.5694 214.316C48.6255 208.387 41.2858 205.499 43.2537 192.251C52.0714 132.893 75.7627 89.8668 114.328 63.1714L114.736 57.2484C114.897 54.9519 116.846 53.2204 119.093 53.3762L147.906 55.4225C150.155 55.5784 151.851 57.5711 151.695 59.8694C151.694 59.8707 151.694 59.8719 151.691 59.8729L150.919 71.0755Z" fill="#FF4133"/>
</svg>
