<svg width="286" height="392" viewBox="0 0 286 392" fill="none" xmlns="http://www.w3.org/2000/svg">
<g filter="url(#filter0_d)">
<path fill-rule="evenodd" clip-rule="evenodd" d="M151.264 62.1572C155.215 57.5194 157.89 51.8358 157.443 45.4671C156.155 27.1171 130.611 31.1538 125.643 40.4153C120.674 49.6768 121.264 73.1694 127.686 74.8247C130.247 75.4848 135.703 73.8678 141.255 70.521L137.77 95.1778H158.349L151.264 62.1572Z" fill="#B28B67"/>
<path fill-rule="evenodd" clip-rule="evenodd" d="M137.372 29.7411C140.084 29.2964 147.387 28.9906 148.734 28.9908C149.595 28.9908 150.527 29.1874 151.037 28.3971C151.454 27.75 151.302 26.6555 151.426 25.9045C151.571 25.0322 151.776 24.171 151.984 23.3121C152.576 20.8679 153.47 18.5425 154.721 16.3593C157.069 12.2633 160.509 9.05484 164.851 7.18787C169.647 5.12645 175.073 4.65443 180.231 5.07256C185.751 5.5199 190.747 7.34206 195.959 9.05682C200.925 10.6908 206.127 11.334 211.321 10.5361C216.554 9.73218 220.509 6.8957 224.923 4.20353C229.442 1.4474 234.606 -0.355214 239.949 0.0591633C244.935 0.4461 249.531 2.50515 253.655 5.25576C257.513 7.82928 260.697 10.9256 262.494 15.2833C264.427 19.971 264.425 25.1165 261.246 29.2592C256.637 35.2643 248.082 36.8171 240.964 36.6628C236.847 36.5737 232.803 35.8222 228.916 34.455C223.733 32.6317 219.253 29.5413 214.403 27.034C212.128 25.8574 209.775 24.891 207.309 24.1949C204.916 23.5192 202.56 23.2092 200.393 24.6547C198.101 26.1839 196.048 27.686 193.426 28.6433C190.91 29.5617 188.246 30.0754 185.566 30.0546C180.352 30.0144 175.213 28.3898 170.149 27.3017C166.019 26.4145 161.601 25.5302 157.391 26.3831C155.634 26.739 153.068 27.4738 152.434 29.2995C163.113 31.235 167.307 44.4421 164.296 54.1375C162.672 59.3704 152.904 65.4876 149.107 62.7366C146.701 60.9937 148.161 58.7057 149.107 57.1953C150.917 54.3027 151.536 50.5871 148.186 48.5733C145.297 46.8364 142.259 50.961 142.202 50.9565C141.407 50.8939 134.546 47.0131 129.818 41.3501C125.154 41.6266 124.446 38.5513 125.56 36.0363C126.673 33.5213 133.625 30.3561 137.372 29.7411Z" fill="#191847"/>
<path fill-rule="evenodd" clip-rule="evenodd" d="M163.485 166.366L99.77 272.886L52.0024 362.939H41.7137L121.749 166.366L163.485 166.366Z" fill="#997659"/>
<path fill-rule="evenodd" clip-rule="evenodd" d="M58.2935 358.781C59.2528 361.342 59.7324 363.258 59.7324 364.53C59.7324 366.076 59.4748 368.332 58.9596 371.299C57.1659 371.299 41.0452 371.299 10.5975 371.299C9.34072 367.144 10.0662 364.901 12.7739 364.57C15.4816 364.238 17.731 363.939 19.5219 363.672L42.0002 353.651C42.4327 353.458 42.9397 353.653 43.1325 354.085C43.1358 354.093 43.139 354.1 43.1421 354.108L44.587 357.613C47.0936 358.782 49.1305 359.367 50.6977 359.367C51.971 359.367 53.7294 358.853 55.9729 357.824L55.9729 357.824C56.8339 357.429 57.8518 357.807 58.2465 358.668C58.2635 358.706 58.2792 358.743 58.2935 358.781Z" fill="#E4E4E4"/>
<path fill-rule="evenodd" clip-rule="evenodd" d="M65.2689 348.519L45.4272 342.516C54.1204 316.528 64.7751 287.93 77.3913 256.72C90.0076 225.511 103.557 195.393 118.039 166.366H174.079C157.978 203.084 140.908 236.446 122.87 266.453C104.832 296.461 85.632 323.816 65.2689 348.519Z" fill="#DB2721"/>
<path fill-rule="evenodd" clip-rule="evenodd" d="M167.672 166.366C173.686 203.798 185.284 251.621 186.378 253.097C187.108 254.081 213.378 262.884 265.188 279.505L262.966 288.578C201.182 279.664 168.628 272.748 165.302 267.83C160.313 260.453 135.404 202.176 125.757 166.366H167.672Z" fill="#B28B67"/>
<path fill-rule="evenodd" clip-rule="evenodd" d="M246.976 271.663L243.061 286.275C196.851 290.328 168.537 287.399 158.119 277.489C147.701 267.579 135.828 230.538 122.499 166.366H175.937C184.381 218.915 189.103 246.292 190.1 248.498C191.098 250.704 210.056 258.425 246.976 271.663Z" fill="#FF4133"/>
<path fill-rule="evenodd" clip-rule="evenodd" d="M262.65 275.725C265.339 275.225 267.309 275.086 268.561 275.307C270.084 275.575 272.261 276.221 275.093 277.243C274.782 279.01 271.982 294.885 266.695 324.87C262.385 325.387 260.302 324.283 260.446 321.559C260.59 318.835 260.686 316.567 260.734 314.757L254.769 290.88C254.654 290.421 254.933 289.955 255.393 289.841C255.401 289.839 255.409 289.837 255.417 289.835L259.119 289.021C260.706 286.755 261.636 284.851 261.908 283.308C262.129 282.054 261.928 280.233 261.305 277.845L261.305 277.845C261.065 276.928 261.615 275.991 262.531 275.752C262.57 275.742 262.61 275.733 262.65 275.725Z" fill="#E4E4E4"/>
<path fill-rule="evenodd" clip-rule="evenodd" d="M89.7076 152.741L65.4176 176.437C58.3502 179.452 52.5594 182.78 48.0453 186.423C47.0301 187.648 45.9249 189.994 50.7012 188.944C55.4774 187.894 60.5486 187.005 61.4463 188.558C62.3439 190.111 59.6988 192.491 61.3579 194.524C62.4639 195.879 66.1836 191.569 72.5168 181.592L97.7752 166.7L89.7076 152.741ZM197.521 156.083L179.603 156.153C190.667 191.87 196.639 210.82 197.521 213.006C199.505 217.923 195.307 225.412 193.511 229.436C199.359 232.053 198.736 222.362 206.113 225.794C212.846 228.926 217.968 234.603 225.748 229.802C226.704 229.212 227.752 226.99 225.22 225.254C218.911 220.928 209.819 213.357 208.591 210.864C206.916 207.466 203.226 189.205 197.521 156.083Z" fill="#B28B67"/>
<path fill-rule="evenodd" clip-rule="evenodd" d="M146.599 80.8943L139.185 79.6226C126.419 111.512 104.132 140.487 72.3235 166.548L96.3598 195.75C128.165 158.642 147.77 120.357 146.599 80.8943Z" fill="#191847"/>
<path fill-rule="evenodd" clip-rule="evenodd" d="M178.921 174.072H112.897C128.193 136.88 135.841 105.286 135.841 79.2898L155.758 76.3223C171.41 101.496 175.83 132.49 178.921 174.072Z" fill="#DDE3E9"/>
<path fill-rule="evenodd" clip-rule="evenodd" d="M156.179 76.3364C156.177 76.3317 156.174 76.327 156.172 76.3223H154.872C153.316 76.3759 150.947 76.4724 147.763 76.6119L142.951 90.3648C142.442 107.133 139.469 140.925 134.033 191.741H177.313C177.199 195.251 177.012 198.793 176.751 202.369H208.932C204.119 148.061 186.54 106.045 156.195 76.3223L156.179 76.3364V76.3364Z" fill="#2F3676"/>
<path fill-rule="evenodd" clip-rule="evenodd" d="M174.454 146.834C173.222 168.712 170.138 183.793 165.202 192.079H177.301C177.831 176.339 176.882 161.257 174.454 146.834V146.834Z" fill="black" fill-opacity="0.1"/>
<path fill-rule="evenodd" clip-rule="evenodd" d="M167.679 165.498L146.338 155.577V165.498H167.679Z" fill="white" fill-opacity="0.2"/>
</g>
<defs>
<filter id="filter0_d" x="0" y="0" width="285.227" height="391.299" filterUnits="userSpaceOnUse" color-interpolation-filters="sRGB">
<feFlood flood-opacity="0" result="BackgroundImageFix"/>
<feColorMatrix in="SourceAlpha" type="matrix" values="0 0 0 0 0 0 0 0 0 0 0 0 0 0 0 0 0 0 127 0"/>
<feOffset dy="10"/>
<feGaussianBlur stdDeviation="5"/>
<feColorMatrix type="matrix" values="0 0 0 0 0 0 0 0 0 0 0 0 0 0 0 0 0 0 0.25 0"/>
<feBlend mode="normal" in2="BackgroundImageFix" result="effect1_dropShadow"/>
<feBlend mode="normal" in="SourceGraphic" in2="effect1_dropShadow" result="shape"/>
</filter>
</defs>
</svg>
