<svg width="320" height="434" viewBox="0 0 320 434" fill="none" xmlns="http://www.w3.org/2000/svg">
<path fill-rule="evenodd" clip-rule="evenodd" d="M168.334 54.3322C163.996 48.3657 161.263 41.2448 162.306 33.5693C165.31 11.454 195.435 18.5965 200.617 30.2538C205.798 41.9112 203.213 70.3176 195.426 71.7565C192.32 72.3304 185.947 69.8905 179.596 65.3466L181.776 95.5227L157.245 93.7081L168.334 54.3322Z" fill="#915B3C"/>
<path fill-rule="evenodd" clip-rule="evenodd" d="M152.266 25.3889C151.53 24.5335 151.176 23.3633 150.875 22.2548C150.564 21.1033 150.264 19.941 150.085 18.7531C149.729 16.3795 149.904 13.6925 151.661 11.9976C153.07 10.6385 155.081 10.1294 156.907 10.1198C158.123 10.1134 159.354 10.3766 160.487 10.8497C161.612 11.319 162.552 12.1596 163.636 12.7177C163.847 10.2032 164.447 7.59985 165.845 5.54153C167.189 3.56111 169.189 2.54051 171.399 2.39293C173.668 2.24151 175.851 2.93912 177.788 4.19451C178.273 4.50891 178.752 4.83618 179.208 5.20024C179.589 5.50511 179.982 5.86745 180.444 6.01376C180.959 6.17702 181.239 5.88802 181.605 5.52387C182.034 5.09691 182.51 4.728 183.009 4.40656C185.215 2.98557 188.015 2.53917 190.386 3.65996C191.478 4.17635 192.519 4.99402 193.211 6.06672C193.829 7.02292 194.216 8.4966 195.11 9.19657C195.489 9.4937 195.793 9.15881 196.172 8.92254C196.742 8.56752 197.289 8.16984 197.865 7.82605C198.674 7.34302 199.537 7.00054 200.446 6.85462C201.778 6.64098 203.584 6.84539 203.842 8.62262C203.938 9.29018 203.783 9.98532 203.693 10.6443C203.57 11.5491 203.444 12.4535 203.305 13.3559C203.2 14.041 203.081 14.7015 202.908 15.3692C202.816 15.7252 202.558 16.3825 202.685 16.755C202.845 17.2205 203.738 17.0275 204.111 17.0705C204.847 17.1554 205.581 17.3415 206.242 17.7131C206.755 18.0012 207.287 18.4086 207.469 19.0436C207.581 19.4336 207.519 19.8213 207.428 20.2076C207.318 20.6711 207.39 20.9265 207.417 21.4042C208.443 20.9783 211.956 20.1221 212.267 21.9666C212.371 22.5807 211.997 23.2389 211.713 23.7298C211.214 24.5908 210.583 25.365 209.943 26.1005C208.606 27.6348 207.047 28.9286 205.39 30.0115C207.181 30.9831 207.497 33.4872 205.799 34.8416C205.049 35.4397 204.09 35.5151 203.202 35.4087C202.877 35.3697 202.416 35.2077 202.156 35.2469C202.015 35.268 201.86 35.3765 201.667 35.3759C200.404 35.3721 199.006 34.96 197.796 34.5862C195.641 33.92 193.639 32.7116 192.054 30.9779C191.648 30.5332 191.305 30.2692 190.72 30.2328C190.207 30.2007 189.695 30.3073 189.183 30.2832C187.826 30.2198 186.651 29.4562 185.424 28.9156C185.231 30.6412 184.619 32.5127 183.82 34.0196C183.168 35.2484 181.972 35.3468 180.802 35.3735C177.06 35.4593 173.356 34.7896 169.633 34.5237C173.181 35.6164 176.882 36.2298 180.388 37.467C181.972 38.0261 180.665 39.0453 179.923 39.7639C178.702 40.9471 177.751 42.4542 177.054 44.0641C175.448 41.5936 172.436 39.8234 169.628 40.3418C166.524 40.9145 164.094 44.9623 165.842 48.1269C166.856 49.9639 168.856 50.7902 170.506 51.668C169.085 52.9779 168.624 55.032 167.708 56.7237C167.256 57.558 166.637 58.4935 165.736 58.73C165.402 58.8176 165.02 58.7993 164.744 59.0514C164.403 59.3636 164.302 59.733 163.876 59.9916C162.175 61.0239 159.645 60.7504 158.307 59.1442C157.097 57.6916 157.579 55.5676 158.759 54.2702C157.078 53.4091 153.99 52.2342 154.862 49.537C151.13 49.0102 142.444 42.15 147.779 37.9881C145.125 36.1963 142.849 32.1241 144.853 28.8265C146.396 26.2872 149.651 25.339 152.266 25.3889Z" fill="#191847"/>
<path fill-rule="evenodd" clip-rule="evenodd" d="M137.197 184.699L213.006 314.255L269.841 423.783H282.083L186.855 184.699L137.197 184.699Z" fill="#784931"/>
<path fill-rule="evenodd" clip-rule="evenodd" d="M262.356 418.727C261.214 421.841 260.644 424.172 260.644 425.718C260.644 427.599 260.95 430.343 261.563 433.951C263.697 433.951 282.878 433.951 319.106 433.951C320.601 428.898 319.738 426.17 316.516 425.767C313.294 425.364 310.618 425 308.487 424.675L281.742 412.487C281.227 412.253 280.624 412.489 280.395 413.015C280.391 413.024 280.387 413.033 280.383 413.042L278.664 417.305C275.682 418.728 273.258 419.439 271.393 419.439C269.878 419.439 267.786 418.813 265.117 417.562L265.117 417.562C264.092 417.082 262.881 417.542 262.412 418.589C262.391 418.634 262.373 418.68 262.356 418.727Z" fill="#E4E4E4"/>
<path fill-rule="evenodd" clip-rule="evenodd" d="M254.056 406.244L277.664 398.944C267.321 367.336 254.643 332.552 239.632 294.593C224.621 256.634 208.5 220.003 191.268 184.699H124.591C143.748 229.357 164.058 269.934 185.52 306.431C206.982 342.928 229.827 376.199 254.056 406.244Z" fill="#5C63AB"/>
<path fill-rule="evenodd" clip-rule="evenodd" d="M132.214 184.699C125.059 230.226 111.259 288.391 109.957 290.186C109.089 291.383 77.8322 302.09 16.1875 322.306L18.8319 333.341C92.3431 322.499 131.077 314.087 135.034 308.105C140.97 299.133 170.607 228.254 182.086 184.699H132.214Z" fill="#915B3C"/>
<path fill-rule="evenodd" clip-rule="evenodd" d="M37.8567 312.767L42.5145 330.539C97.4965 335.469 131.185 331.907 143.581 319.854C155.976 307.801 170.103 262.749 185.962 184.699H122.381C112.333 248.612 106.716 281.909 105.529 284.592C104.342 287.275 81.7845 296.667 37.8567 312.767Z" fill="#8991DC"/>
<path fill-rule="evenodd" clip-rule="evenodd" d="M19.3022 317.728C16.0857 317.132 13.7275 316.971 12.2277 317.245C10.4036 317.578 7.79418 318.372 4.39953 319.627C4.76504 321.773 8.04989 341.058 14.2541 377.483C19.4117 378.092 21.9101 376.741 21.7492 373.43C21.5883 370.12 21.4828 367.364 21.4328 365.164L28.6745 336.115C28.8138 335.556 28.4813 334.992 27.9317 334.854C27.9223 334.852 27.9129 334.85 27.9034 334.848L23.4741 333.874C21.5836 331.127 20.4787 328.816 20.1594 326.941C19.8999 325.418 20.1483 323.204 20.9045 320.298L20.9045 320.298C21.1947 319.183 20.5413 318.047 19.4452 317.76C19.3979 317.748 19.3502 317.737 19.3022 317.728Z" fill="#E4E4E4"/>
<path fill-rule="evenodd" clip-rule="evenodd" d="M228.258 174.825L256.281 204.532C264.58 208.496 271.348 212.779 276.584 217.382C277.747 218.906 278.974 221.787 273.329 220.299C267.683 218.811 261.681 217.503 260.555 219.335C259.428 221.166 262.487 224.16 260.437 226.535C259.07 228.118 254.804 222.746 247.639 210.42L218.134 191.287L228.258 174.825ZM84.7158 138.422L101.881 144.899C74.2666 182.464 59.5247 202.301 57.6552 204.409C53.4489 209.151 55.1324 219.384 55.5208 224.691C47.9135 225.217 52.5204 214.5 42.8711 215.312C34.0636 216.054 26.0355 220.348 19.2557 211.668C18.4222 210.601 18.1442 207.647 21.6817 206.736C30.4951 204.466 43.735 199.68 46.1166 197.369C49.3642 194.218 62.2306 174.569 84.7158 138.422Z" fill="#915B3C"/>
<path fill-rule="evenodd" clip-rule="evenodd" d="M235.46 178.405C239.65 178.86 244.033 180.38 248.579 182.914C250.816 184.161 251.648 187.01 250.438 189.276C249.735 190.592 248.497 191.423 247.145 191.643C247.952 192.497 248.768 193.348 249.593 194.196L238.617 209.541C207.409 186.001 177.53 167.092 167.76 135.863C164.481 125.382 171.677 93.1325 173.222 81.2041L184.771 78.6831C194.438 113.001 209.635 147.008 235.46 178.405Z" fill="#69A1AC"/>
<path fill-rule="evenodd" clip-rule="evenodd" d="M116.755 184.551C147.876 193.89 172.846 198.455 191.664 198.245C193.995 198.22 195.577 188.321 194.989 185.431C185.837 140.428 180.348 107.706 185.312 78.5174C182.051 79.5572 176.777 78.8381 169.489 76.3602C144.279 102.766 129.173 135.59 116.755 184.551Z" fill="#191847"/>
<path fill-rule="evenodd" clip-rule="evenodd" d="M110.023 188.692C109.12 187.465 108.821 185.819 109.368 184.279L110.409 181.346C111.114 179.359 113.01 178.165 114.988 178.285C115.588 176.81 116.14 175.335 116.639 173.863C120.856 161.427 119.511 148.231 121.772 135.927C103.147 147.023 84.4551 168.644 65.695 200.79L47.5983 191.609C48.7926 188.997 50.0072 186.425 51.2421 183.89C49.2574 182.219 47.6757 175.93 49.6919 175.295C51.7743 174.639 53.9194 174.301 56.1226 174.274C82.6985 124.005 117.937 90.1286 161.839 72.6466L165.35 73.2885L173.319 74.745C162.218 119.517 192.05 227.145 161.443 308.812C130.323 310.13 91.142 281.171 46.6291 290.45C53.9758 256.651 91.8231 222.286 110.023 188.692L110.023 188.692Z" fill="#89C5CC"/>
<path fill-rule="evenodd" clip-rule="evenodd" d="M165.884 74.1413L157.894 89.4627L166.325 103.581L155.195 111.435L171.376 155.525L150.06 110.579L161.034 102.615L153.543 90.1312L165.884 74.1413Z" fill="black" fill-opacity="0.1"/>
<path fill-rule="evenodd" clip-rule="evenodd" d="M161.771 169.731C159.533 169.323 158.032 167.155 158.419 164.888C158.805 162.621 160.933 161.114 163.171 161.522C165.409 161.93 166.91 164.099 166.524 166.366C166.137 168.632 164.009 170.139 161.771 169.731ZM162.812 194.255C160.574 193.847 159.073 191.679 159.46 189.412C159.846 187.145 161.974 185.638 164.212 186.046C166.45 186.455 167.951 188.623 167.564 190.89C167.178 193.157 165.05 194.663 162.812 194.255ZM159.8 218.041C157.562 217.633 156.061 215.464 156.448 213.197C156.835 210.931 158.962 209.424 161.2 209.832C163.438 210.24 164.939 212.408 164.553 214.675C164.166 216.942 162.039 218.449 159.8 218.041Z" fill="black" fill-opacity="0.4"/>
</svg>
