<svg width="224" height="339" viewBox="0 0 224 339" fill="none" xmlns="http://www.w3.org/2000/svg">
<g filter="url(#filter0_d)">
<path fill-rule="evenodd" clip-rule="evenodd" d="M109.303 31.0072C105.672 26.7448 103.214 21.5212 103.625 15.6681C104.808 -1.19652 128.284 2.51348 132.851 11.0253C137.418 19.5371 136.875 41.128 130.973 42.6493C128.619 43.256 123.605 41.7698 118.502 38.6939L121.705 61.3548H102.792L109.303 31.0072Z" fill="#B28B67"/>
<path fill-rule="evenodd" clip-rule="evenodd" d="M124.51 12.2597C121.943 13.6954 120.117 16.3856 117.918 19.9143C117.383 19.7038 116.799 19.5882 116.189 19.5882C113.578 19.5882 111.461 21.7052 111.461 24.3165C111.461 25.6422 112.006 26.8404 112.885 27.699C111.791 29.2433 110.565 30.8564 109.16 32.521C103.917 29.3754 100.017 20.2072 105.023 11.3565C109.331 -6.37209 133.738 4.63184 138.433 1.64185C139.46 8.07524 136.149 13.2626 124.51 12.2597Z" fill="#191847"/>
<path fill-rule="evenodd" clip-rule="evenodd" d="M102.031 129.769L140.709 227.666L166.651 310.429H176.895L137.236 129.769L102.031 129.769Z" fill="#997659"/>
<path fill-rule="evenodd" clip-rule="evenodd" d="M94.2421 129.769C93.8302 164.171 87.8236 210.487 86.864 212.631C86.2242 214.061 64.1383 232.241 20.6063 267.171L27.6619 274.722C79.0256 244.773 105.896 227.802 108.273 223.807C111.838 217.816 123.445 162.68 132.765 129.769H94.2421Z" fill="#B28B67"/>
<path fill-rule="evenodd" clip-rule="evenodd" d="M19.6626 264.651C17.293 265.488 15.6607 266.283 14.7656 267.034C13.677 267.947 12.2406 269.461 10.4565 271.577C11.5161 272.839 21.0395 284.189 39.0267 305.625C42.6942 304.056 43.8448 302.22 42.4785 300.118C41.1121 298.016 39.9939 296.255 39.1238 294.837L32.8997 273.091C32.78 272.673 32.3437 272.431 31.9253 272.551C31.9181 272.553 31.911 272.555 31.9039 272.557L28.5827 273.61C26.2785 272.536 24.6635 271.448 23.7377 270.344C22.9855 269.448 22.3087 267.906 21.7074 265.719L21.7075 265.719C21.4767 264.88 20.6092 264.387 19.7699 264.617C19.7337 264.627 19.6979 264.638 19.6626 264.651Z" fill="#E4E4E4"/>
<path fill-rule="evenodd" clip-rule="evenodd" d="M162.457 306.609C161.575 308.962 161.134 310.723 161.134 311.891C161.134 313.312 161.371 315.386 161.844 318.113C163.493 318.113 178.309 318.113 206.292 318.113C207.447 314.294 206.78 312.233 204.292 311.928C201.803 311.624 199.736 311.349 198.09 311.103L177.431 301.894C177.034 301.716 176.568 301.895 176.39 302.292C176.387 302.299 176.384 302.306 176.382 302.313L175.054 305.534C172.75 306.609 170.878 307.147 169.438 307.147C168.267 307.147 166.651 306.674 164.589 305.729L164.589 305.729C163.798 305.366 162.863 305.713 162.5 306.505C162.484 306.539 162.47 306.573 162.457 306.609Z" fill="#E4E4E4"/>
<path fill-rule="evenodd" clip-rule="evenodd" d="M128.036 301.905L176.741 296.619L140.645 129.769H97.022L128.036 301.905Z" fill="#69A1AC"/>
<path fill-rule="evenodd" clip-rule="evenodd" d="M30.6808 254.99L62.6283 292.805C96.2779 256.054 115.896 232.073 121.482 220.864C127.068 209.655 132.089 179.29 136.546 129.769H87.4346C84.9999 173.335 83.3587 196.132 82.5111 198.16C81.6635 200.187 64.3867 219.131 30.6808 254.99Z" fill="#89C5CC"/>
<path fill-rule="evenodd" clip-rule="evenodd" d="M173.132 120.243L196.292 142.691C203.03 145.547 208.552 148.7 212.856 152.151C213.824 153.311 214.877 155.534 210.323 154.539C205.769 153.545 200.934 152.702 200.078 154.174C199.222 155.645 201.744 157.9 200.162 159.826C199.108 161.109 195.561 157.026 189.523 147.575L165.44 133.467L173.132 120.243ZM59.8803 99.9271L77.7828 99.9938C64.1477 143.885 56.9097 166.866 56.0689 168.936C54.1771 173.595 58.1804 180.689 59.8924 184.501C54.3165 186.98 54.9107 177.8 47.8769 181.051C41.4568 184.018 36.5731 189.396 29.1556 184.848C28.2437 184.289 27.2444 182.184 29.6589 180.539C35.6743 176.441 44.3429 169.269 45.5142 166.908C47.1114 163.688 51.9001 141.361 59.8803 99.9271Z" fill="#B28B67"/>
<path fill-rule="evenodd" clip-rule="evenodd" d="M114.432 49.4692L121.502 48.2644C132.639 87.3779 189.859 114.039 193.371 128.661C194.66 134.023 190.775 136.734 192.782 138.367L183.593 145.05C182.037 143.246 178.716 146.546 171.781 144.238C164.847 141.93 114.432 95.7829 114.432 49.4692Z" fill="#DB2721"/>
<path fill-rule="evenodd" clip-rule="evenodd" d="M126.324 54.6692C125.509 106.453 155.638 119.662 148.927 140.435C143.385 157.589 90.3407 176.03 81.1617 159.215C77.4461 152.408 75.7603 144.176 75.5691 135.226C73.2231 142.102 71.3677 148.022 70.0029 152.984C67.6483 161.546 58.5203 162.907 58.5203 166.205L46.4942 162.907C47.3099 158.426 41.6406 156.244 43.1607 146.234C49.9716 101.381 68.2715 68.8685 98.0602 48.6966L98.3752 44.2209C98.5002 42.4856 100.005 41.1772 101.741 41.295L123.997 42.8412C125.734 42.9591 127.044 44.4648 126.923 46.2015C126.923 46.2024 126.923 46.2034 126.92 46.2041L126.324 54.6692Z" fill="#FF4133"/>
</g>
<defs>
<filter id="filter0_d" x="0.456421" y="0.962036" width="223.243" height="337.15" filterUnits="userSpaceOnUse" color-interpolation-filters="sRGB">
<feFlood flood-opacity="0" result="BackgroundImageFix"/>
<feColorMatrix in="SourceAlpha" type="matrix" values="0 0 0 0 0 0 0 0 0 0 0 0 0 0 0 0 0 0 127 0"/>
<feOffset dy="10"/>
<feGaussianBlur stdDeviation="5"/>
<feColorMatrix type="matrix" values="0 0 0 0 0 0 0 0 0 0 0 0 0 0 0 0 0 0 0.25 0"/>
<feBlend mode="normal" in2="BackgroundImageFix" result="effect1_dropShadow"/>
<feBlend mode="normal" in="SourceGraphic" in2="effect1_dropShadow" result="shape"/>
</filter>
</defs>
</svg>
