<svg width="273" height="399" viewBox="0 0 273 399" fill="none" xmlns="http://www.w3.org/2000/svg">
<path fill-rule="evenodd" clip-rule="evenodd" d="M174.337 18.2902C177.709 30.9923 182.104 59.5438 177.619 64.0225H149.25C149.247 63.971 149.244 63.9197 149.241 63.8685C138.726 62.679 130.548 53.5658 130.548 42.5V21.5C130.548 9.62588 139.965 0 151.581 0H153.537C164.086 0 172.821 7.93854 174.337 18.2902Z" fill="#191847"/>
<path fill-rule="evenodd" clip-rule="evenodd" d="M141.566 38.4901C137.058 33.0814 134.007 26.4529 134.517 19.0255C135.986 -2.37502 165.128 2.33281 170.797 13.1339C176.466 23.9351 175.792 51.333 168.466 53.2635C165.544 54.0333 159.32 52.1475 152.985 48.2443L156.961 77H133.483L141.566 38.4901Z" fill="#D4A181"/>
<path fill-rule="evenodd" clip-rule="evenodd" d="M147.912 34.8748C148.994 46.7528 148.561 60.3172 145.337 63.5371H116.967C115.386 35.4635 130.663 46.3348 130.663 19.9028C131.615 18.9515 132.515 18.01 133.406 17.1981L133.374 16.4207C138.287 6.14023 144.519 1 152.071 1C163.399 1 166.975 6.38832 170.02 10.9631C167.743 18.9482 158.908 20.1322 151.058 25.1095C150.133 24.341 148.953 23.8804 147.668 23.8804C144.696 23.8804 142.287 26.3428 142.287 29.3804C142.287 32.418 144.696 34.8804 147.668 34.8804C147.75 34.8804 147.831 34.8785 147.912 34.8748Z" fill="#191847"/>
<path fill-rule="evenodd" clip-rule="evenodd" d="M95.7296 258.088C119.197 264.798 139.445 268.153 156.472 268.153C173.498 268.153 189.314 262.986 203.918 252.653C180.952 245.766 162.039 242.323 147.178 242.323C132.318 242.323 115.168 247.578 95.7296 258.088Z" fill="#1F28CF"/>
<path fill-rule="evenodd" clip-rule="evenodd" d="M176.787 277.824C176.561 277.477 176.37 277.098 176.218 276.689C173.081 268.208 122.836 176.726 117.831 160H174.4C178.205 172.717 195.335 252.52 197.746 268.442C205.352 293.557 221.013 374.895 223.012 380.53C225.115 386.458 213.282 392.633 210.128 385.346C205.111 373.75 193.155 341.665 187.832 322.074C182.842 303.708 178.778 287.185 176.787 277.824Z" fill="#BA8B72"/>
<path fill-rule="evenodd" clip-rule="evenodd" d="M130.506 288.994C107.535 294.928 23.5107 305.658 17.7446 307.34C11.813 309.072 6.61223 296.574 13.9439 293.867C25.6099 289.559 57.7548 279.606 77.2444 275.544C92.9206 272.277 107.225 269.611 116.829 268.05C116.016 240.473 112.296 174.294 114.734 160H164.787C162.45 173.707 142.688 273.718 139.015 283.729C137.85 287.302 134.372 288.882 130.506 288.994Z" fill="#D4A181"/>
<path fill-rule="evenodd" clip-rule="evenodd" d="M14.5682 290.557C11.484 289.986 9.22283 289.831 7.78469 290.094C6.03557 290.413 3.5335 291.174 0.278477 292.378C0.628949 294.435 3.7787 312.928 9.72772 347.854C14.6732 348.438 17.0688 347.143 16.9145 343.968C16.7602 340.794 16.6591 338.152 16.6112 336.042L23.555 308.188C23.6886 307.652 23.3698 307.111 22.8428 306.979C22.8338 306.977 22.8247 306.975 22.8157 306.973L18.5685 306.039C16.7558 303.405 15.6963 301.189 15.3901 299.391C15.1413 297.931 15.3795 295.808 16.1046 293.022L16.1046 293.022C16.3828 291.952 15.7563 290.863 14.7053 290.588C14.66 290.576 14.6143 290.566 14.5682 290.557Z" fill="#E4E4E4"/>
<path fill-rule="evenodd" clip-rule="evenodd" d="M206.538 384.402C205.443 387.388 204.896 389.623 204.896 391.106C204.896 392.909 205.19 395.54 205.778 399C207.824 399 226.216 399 260.953 399C262.387 394.155 261.559 391.539 258.47 391.152C255.381 390.766 252.815 390.417 250.771 390.106L225.126 378.419C224.633 378.194 224.054 378.421 223.834 378.925C223.831 378.934 223.827 378.942 223.824 378.951L222.175 383.039C219.315 384.403 216.991 385.085 215.203 385.085C213.751 385.085 211.745 384.485 209.185 383.286L209.185 383.285C208.203 382.825 207.041 383.266 206.591 384.27C206.572 384.313 206.554 384.357 206.538 384.402Z" fill="#E4E4E4"/>
<path fill-rule="evenodd" clip-rule="evenodd" d="M114.896 160C136.953 153.549 157.822 153.549 177.505 160C184.352 191.937 200.992 204.613 203.918 253.579C170.657 270.473 129.57 241.53 95.3306 258.005C85.548 234.961 99.2437 179.464 114.896 160Z" fill="#2B44FF"/>
<path fill-rule="evenodd" clip-rule="evenodd" d="M209.787 120.311L248.412 114.925C256.138 110.532 263.246 107.558 269.736 106.003C271.562 105.948 274.467 106.627 270.139 110.315C265.811 114.003 261.42 118.083 262.191 120.051C262.962 122.02 266.987 121.287 267.654 124.315C268.098 126.333 261.566 126.661 248.058 125.299L216.717 138L209.787 120.311ZM88.4533 129.45L109.875 129.532C86.3855 183.566 74.138 211.857 73.1319 214.406C70.8682 220.14 75.6584 228.874 77.7069 233.567C71.0351 236.619 71.746 225.317 63.3297 229.319C55.6477 232.973 49.804 239.592 40.9286 233.994C39.8374 233.306 38.6417 230.715 41.5308 228.69C48.7286 223.645 59.1011 214.815 60.5025 211.908C62.4137 207.945 71.7306 180.459 88.4533 129.45Z" fill="#D4A181"/>
<path fill-rule="evenodd" clip-rule="evenodd" d="M147.129 60.0001L163.901 61.1423C168.032 99.3435 190.531 123.473 240.907 115.304L247.599 164.499C200.516 170.719 159.224 151.45 150.761 99.2786C148.57 85.7731 146.841 71.7179 147.129 60.0001Z" fill="#AFB9C5"/>
<path fill-rule="evenodd" clip-rule="evenodd" d="M138.854 55.0159L164.266 60.9653C164.266 105.644 178.189 134.15 185.331 167H116.699C115.733 178.351 115.139 190.018 114.83 202H63.4409C75.0859 138.664 99.6644 89.664 137.177 55H138.841L138.854 55.0159Z" fill="#C5CFD6"/>
<path fill-rule="evenodd" clip-rule="evenodd" d="M127.528 103.259C125.759 131.101 126.799 152.347 130.648 167H116.699C118.615 144.514 121.994 123.267 127.528 103.259V103.259Z" fill="black" fill-opacity="0.1"/>
</svg>
