<svg width="199" height="199" viewBox="0 0 199 199" fill="none" xmlns="http://www.w3.org/2000/svg">
<path d="M3.69238 195.308C6.15398 197.769 9.10141 199 12.5347 199C15.9679 199 18.9154 197.769 21.377 195.308L59.8554 156.829C75.4025 168.36 92.7629 174.125 111.938 174.125C123.727 174.125 134.999 171.825 145.752 167.226C156.505 162.627 165.768 156.441 173.542 148.667C181.316 140.893 187.502 131.63 192.101 120.877C196.7 110.124 199 98.8523 199 87.0625C199 75.2727 196.7 64.0012 192.101 53.2481C187.502 42.4948 181.316 33.2314 173.542 25.458C165.768 17.6846 156.505 11.4982 145.752 6.8989C134.999 2.29964 123.727 0 111.938 0C100.148 0 88.8762 2.29964 78.1231 6.8989C67.37 11.4982 58.1066 17.6846 50.3328 25.458C42.5596 33.2314 36.3732 42.4948 31.7739 53.2481C27.1746 64.0012 24.875 75.2727 24.875 87.0625C24.875 106.237 30.6403 123.597 42.1709 139.145L3.69238 177.623C1.2308 180.085 0 183.032 0 186.465C0 189.899 1.2308 192.846 3.69238 195.308ZM111.938 24.875C123.209 24.875 133.606 27.6605 143.128 33.2314C152.651 38.8024 160.197 46.3491 165.768 55.8716C171.339 65.3942 174.125 75.791 174.125 87.0625C174.125 102.739 168.878 116.472 158.384 128.262C151.129 123.986 141.865 121.007 130.594 119.322V113.298C143.031 105.784 149.25 90.2365 149.25 66.6574C149.25 57.0699 145.752 49.7822 138.756 44.7944C131.76 39.8065 122.788 37.3125 111.84 37.3125C100.893 37.3125 91.9532 39.8065 85.0218 44.7944C78.0904 49.7822 74.625 57.0699 74.625 66.6574C74.625 91.2732 80.8438 107.014 93.2812 113.881V119.322C82.0098 120.877 72.6814 123.857 65.2966 128.262C54.9325 116.472 49.75 102.739 49.75 87.0625C49.75 75.791 52.5355 65.3942 58.1066 55.8716C63.6776 46.3491 71.224 38.8024 80.7466 33.2314C90.2692 27.6605 100.666 24.875 111.938 24.875Z" fill="#FC6767"/>
</svg>
