<svg width="148" height="27" viewBox="0 0 148 27" fill="none" xmlns="http://www.w3.org/2000/svg">
<path d="M86.809 9.53965C86.9299 9.65987 87.0747 9.72 87.2433 9.72C87.412 9.72 87.5568 9.65987 87.6777 9.53965L89.568 7.66019C90.3318 8.2234 91.1847 8.505 92.1266 8.505C92.7058 8.505 93.2596 8.39266 93.7878 8.16802C94.3161 7.94337 94.7712 7.64122 95.1531 7.26153C95.5349 6.88183 95.8388 6.42936 96.0648 5.90414C96.2907 5.37891 96.4037 4.82836 96.4037 4.2525C96.4037 3.67664 96.2907 3.12609 96.0648 2.60086C95.8388 2.07563 95.5349 1.62316 95.1531 1.24348C94.7712 0.863789 94.3161 0.561622 93.7878 0.336972C93.2596 0.112324 92.7058 0 92.1266 0C91.5475 0 90.9937 0.112324 90.4655 0.336972C89.9372 0.561622 89.4821 0.863789 89.1002 1.24348C88.7184 1.62316 88.4144 2.07563 88.1885 2.60086C87.9626 3.12609 87.8496 3.67664 87.8496 4.2525C87.8496 5.18907 88.1328 6.03702 88.6993 6.79641L86.809 8.67586C86.688 8.79609 86.6276 8.94006 86.6276 9.10776C86.6276 9.27545 86.688 9.41942 86.809 9.53965ZM92.1266 1.215C92.6804 1.215 93.1911 1.35105 93.6589 1.62316C94.1267 1.89527 94.4975 2.26389 94.7712 2.72901C95.0448 3.19413 95.1817 3.70195 95.1817 4.2525C95.1817 5.0182 94.9239 5.68898 94.4084 6.26484C94.052 6.05602 93.5969 5.91048 93.0432 5.8282V5.53394C93.6542 5.16692 93.9597 4.40753 93.9597 3.25583C93.9597 2.78753 93.7878 2.43157 93.4441 2.18795C93.1004 1.94432 92.6597 1.8225 92.1219 1.8225C91.584 1.8225 91.1449 1.94432 90.8044 2.18795C90.4639 2.43157 90.2936 2.78753 90.2936 3.25583C90.2936 4.45817 90.5991 5.22702 91.2101 5.56243V5.8282C90.6564 5.90414 90.1981 6.04968 89.8353 6.26484C89.3262 5.68898 89.0716 5.0182 89.0716 4.2525C89.0716 3.70195 89.2084 3.19413 89.4821 2.72901C89.7558 2.26389 90.1265 1.89527 90.5943 1.62316C91.0622 1.35105 91.5729 1.215 92.1266 1.215Z" fill="#FC6767"/>
<g clip-path="url(#clip0)">
<path d="M8.89175 7.17384L7.26074 6.97918C6.93008 6.94195 6.59648 7.01705 6.31424 7.19225C6.03201 7.36744 5.81776 7.63242 5.70639 7.94404C5.47643 8.46032 5.35719 9.63675 5.35719 11.4522V11.9558H7.91229C8.04415 11.9469 8.17637 11.9666 8.29986 12.0133C8.42336 12.0601 8.53521 12.1328 8.62773 12.2266C8.7077 12.3045 8.77142 12.3973 8.81526 12.4997C8.85911 12.6021 8.8822 12.712 8.88323 12.8233C8.8817 13.0441 8.7983 13.2565 8.64901 13.42C8.55413 13.5166 8.43879 13.5911 8.31137 13.6379C8.18394 13.6848 8.04762 13.7028 7.91229 13.6908H5.35719V25.5399C5.36896 25.7029 5.34194 25.8664 5.27832 26.0171C5.21469 26.1678 5.11625 26.3015 4.99096 26.4074C4.79148 26.5827 4.53732 26.6843 4.27127 26.6952C4.08093 26.7012 3.89092 26.6755 3.70915 26.619C3.56988 26.5716 3.44322 26.4935 3.33866 26.3905C3.21197 26.2894 3.11091 26.1601 3.0436 26.0131C2.9763 25.8661 2.94463 25.7055 2.95114 25.5441V13.6951H0.932608C0.803119 13.7059 0.672863 13.6871 0.551811 13.6401C0.430759 13.5932 0.32212 13.5193 0.234213 13.4242C0.083378 13.2617 -0.000366211 13.0487 -0.000366211 12.8275C-0.000366211 12.6064 0.083378 12.3934 0.234213 12.2309C0.32212 12.1358 0.430759 12.0619 0.551811 12.015C0.672863 11.968 0.803119 11.9492 0.932608 11.96H2.95114V10.3012C2.95114 7.60126 3.68928 5.96919 5.16556 5.40495C5.60965 5.22744 6.08368 5.13552 6.56235 5.13411C7.4288 5.13257 8.29042 5.26243 9.11745 5.5192C9.29784 5.5588 9.45717 5.6632 9.56484 5.81238C9.67252 5.96155 9.72096 6.14499 9.70086 6.32748C9.70118 6.53683 9.63237 6.7405 9.50498 6.90724C9.43314 6.99885 9.33944 7.07122 9.23236 7.11777C9.12528 7.16432 9.00821 7.18359 8.89175 7.17384Z" fill="#3A7BD5"/>
<path d="M12.4348 11.9559C12.5876 11.9339 12.7434 11.9476 12.8899 11.996C13.0364 12.0444 13.1695 12.126 13.2787 12.2345C13.3879 12.343 13.47 12.4753 13.5187 12.6209C13.5674 12.7664 13.5812 12.9213 13.5591 13.0731V14.368C14.2063 12.5173 15.5648 11.592 17.6344 11.592C17.7975 11.5813 17.961 11.6048 18.1143 11.661C18.2676 11.7171 18.4073 11.8046 18.5245 11.9178C18.7192 12.1059 18.831 12.3631 18.8353 12.633C18.8352 12.8933 18.7311 13.143 18.5458 13.327C18.2325 13.5718 17.8342 13.6829 17.4386 13.6359C16.8978 13.6366 16.363 13.7475 15.8672 13.9618C15.3771 14.1643 14.9401 14.4755 14.5896 14.8716C13.8519 15.8432 13.4811 17.0415 13.542 18.2571V25.5443C13.5532 25.7062 13.5237 25.8684 13.456 26.0161C13.3884 26.1639 13.2847 26.2926 13.1545 26.3906C12.9472 26.564 12.6884 26.6651 12.4178 26.6784C12.2274 26.6836 12.0371 26.6651 11.8514 26.6234C11.7194 26.589 11.5951 26.5301 11.4852 26.4499C11.365 26.3362 11.2715 26.1977 11.2111 26.0441C11.1508 25.8905 11.1251 25.7257 11.136 25.5612V13.0731C11.1245 12.9132 11.1518 12.7529 11.2155 12.6057C11.2792 12.4584 11.3775 12.3285 11.5022 12.2267C11.7722 12.0321 12.1018 11.9364 12.4348 11.9559Z" fill="#3A7BD5"/>
<path d="M23.6602 6.82698C23.6599 7.00516 23.6218 7.18129 23.5484 7.34388C23.475 7.50647 23.368 7.65188 23.2344 7.77067C22.8893 8.03388 22.4664 8.17655 22.0313 8.17655C21.5963 8.17655 21.1734 8.03388 20.8283 7.77067C20.6947 7.65188 20.5877 7.50647 20.5143 7.34388C20.4409 7.18129 20.4028 7.00516 20.4025 6.82698C20.4035 6.6458 20.4418 6.46674 20.515 6.30081C20.5883 6.13489 20.6949 5.9856 20.8283 5.86212C21.1687 5.5883 21.5934 5.4389 22.0313 5.4389C22.4693 5.4389 22.894 5.5883 23.2344 5.86212C23.3678 5.9856 23.4744 6.13489 23.5476 6.30081C23.6209 6.46674 23.6592 6.6458 23.6602 6.82698ZM20.8666 13.1493C20.8567 12.9836 20.8849 12.8178 20.9491 12.6645C21.0133 12.5113 21.1118 12.3746 21.2371 12.2649C21.4304 12.0797 21.6844 11.97 21.9526 11.9559C22.1374 11.9487 22.322 11.9745 22.4976 12.0321C22.6281 12.0865 22.7467 12.1656 22.8468 12.2649C22.9813 12.3678 23.0874 12.5028 23.1552 12.6575C23.223 12.8122 23.2502 12.9814 23.2344 13.1493V25.4935C23.2446 25.6615 23.2148 25.8295 23.1475 25.9839C23.0802 26.1383 22.9772 26.2747 22.8468 26.3822C22.6078 26.58 22.3062 26.6879 21.9951 26.6869C21.7033 26.6903 21.4202 26.588 21.1988 26.3991C21.0751 26.2845 20.9793 26.1434 20.9188 25.9864C20.8583 25.8295 20.8346 25.6609 20.8496 25.4935L20.8666 13.1493Z" fill="#3A7BD5"/>
<path d="M40.2471 18.858C40.2491 19.0806 40.1653 19.2957 40.0129 19.4589C39.914 19.5488 39.7976 19.6173 39.6708 19.6603C39.544 19.7033 39.4096 19.7197 39.2761 19.7086H28.5617C28.6128 21.6129 29.1196 22.984 30.0778 23.8346C31.0252 24.7117 32.2749 25.1948 33.5697 25.1845C34.9665 25.1845 36.4542 24.6697 38.0326 23.6399C38.2149 23.4968 38.4392 23.4166 38.6714 23.4114C38.7711 23.4074 38.8704 23.4258 38.9619 23.4654C39.0533 23.505 39.1346 23.5646 39.1995 23.6399C39.3164 23.7679 39.3842 23.9327 39.3911 24.1054C39.3957 24.2482 39.3705 24.3903 39.317 24.5229C39.2635 24.6555 39.1828 24.7756 39.0802 24.8756C37.5307 26.2969 35.4815 27.0567 33.3738 26.9915C32.4175 27.0284 31.4641 26.8655 30.5751 26.5135C29.686 26.1614 28.8812 25.6279 28.2125 24.9475C27.4877 24.2031 26.9217 23.3209 26.5485 22.3537C26.1753 21.3865 26.0026 20.3544 26.0407 19.3192C25.9724 17.3667 26.6218 15.4562 27.8676 13.9448C28.5065 13.1757 29.3154 12.5632 30.2312 12.1552C31.147 11.7471 32.1452 11.5544 33.1481 11.5919C35.4477 11.5919 37.2235 12.286 38.4628 13.674C39.5998 14.9774 40.1917 16.6997 40.2471 18.858ZM37.8793 18.1766C37.844 16.9169 37.3785 15.7066 36.5592 14.7447C35.7799 13.8983 34.6557 13.4751 33.1822 13.4751C32.5818 13.4589 31.9852 13.575 31.4352 13.815C30.8852 14.055 30.3955 14.4129 30.0011 14.8631C29.1885 15.7875 28.7104 16.9553 28.6427 18.1809L37.8793 18.1766Z" fill="#3A7BD5"/>
<path d="M42.9725 13.0351C42.962 12.8804 42.9904 12.7255 43.055 12.5844C43.1197 12.4433 43.2186 12.3204 43.343 12.2268C43.6473 12.0301 44.0069 11.9352 44.3693 11.9559C45.1983 11.9559 45.5347 12.7656 45.3785 14.385C45.9747 13.1493 47.1103 12.2874 48.7853 11.7994C49.3434 11.6683 49.9153 11.6043 50.4887 11.6089C51.13 11.6131 51.7661 11.7232 52.371 11.9348C53.0057 12.1517 53.5864 12.5009 54.0744 12.9589C55.1362 13.9632 55.6671 15.4415 55.6671 17.3938V25.5697C55.6786 25.7321 55.6487 25.8948 55.5803 26.0427C55.5118 26.1906 55.4069 26.319 55.2753 26.416C55.0273 26.5929 54.7289 26.6863 54.4236 26.6826C54.1271 26.6834 53.8395 26.5817 53.6102 26.3949C53.484 26.2943 53.3842 26.1647 53.3197 26.0172C53.2551 25.8697 53.2277 25.7089 53.2397 25.5485V17.1992C53.2397 15.402 52.53 14.2327 51.1105 13.691C50.6569 13.5305 50.1781 13.4517 49.6967 13.4582C49.1443 13.4636 48.5975 13.5683 48.0827 13.7671C47.5732 13.9554 47.1005 14.2303 46.6859 14.5797C45.8087 15.3499 45.3658 16.5305 45.3658 18.1259V25.5697C45.3778 25.7317 45.3486 25.8942 45.2808 26.0421C45.2131 26.19 45.1091 26.3186 44.9782 26.416C44.7292 26.5908 44.4314 26.684 44.1265 26.6826C43.8279 26.6885 43.5373 26.5862 43.3089 26.3949C43.1887 26.2904 43.0945 26.1595 43.0339 26.0126C42.9733 25.8657 42.9479 25.7068 42.9597 25.5485L42.9725 13.0351Z" fill="#3A7BD5"/>
<path d="M71.2022 26.6869C71.0483 26.702 70.8929 26.6857 70.7456 26.6388C70.5982 26.592 70.4621 26.5157 70.3456 26.4146C70.2291 26.3135 70.1347 26.1897 70.0682 26.051C70.0016 25.9122 69.9644 25.7614 69.9587 25.6078V24.2197C69.3702 25.1259 68.5541 25.8639 67.591 26.361C66.6594 26.7968 65.6395 27.014 64.6101 26.9958C63.6249 27.0244 62.6491 26.7984 61.7781 26.3399C61.0077 25.9223 60.3491 25.3273 59.8576 24.6048C58.8409 23.0027 58.3266 21.1364 58.3799 19.2431C58.3799 17.1103 58.8852 15.3499 59.8959 13.9618C60.9832 12.3904 62.5745 11.6061 64.6697 11.6089C66.2427 11.5722 67.7761 12.1011 68.9878 13.0985C69.3799 13.4378 69.7086 13.8432 69.9587 14.2961V6.55617C69.9482 6.40148 69.9766 6.24662 70.0413 6.10553C70.1059 5.96444 70.2049 5.84154 70.3292 5.74789C70.5741 5.56438 70.8743 5.46888 71.1809 5.47705C71.4899 5.47128 71.7912 5.57309 72.0326 5.76482C72.1518 5.85895 72.2471 5.97962 72.3107 6.11709C72.3743 6.25455 72.4045 6.40496 72.3989 6.55617V25.5697C72.4107 25.7296 72.3836 25.89 72.3198 26.0373C72.2561 26.1847 72.1576 26.3146 72.0326 26.4161C71.7945 26.5968 71.5018 26.6922 71.2022 26.6869ZM67.5144 13.9449C66.8447 13.6184 66.1052 13.4586 65.3596 13.4794C64.617 13.4529 63.8812 13.6269 63.2303 13.983C62.6763 14.3033 62.2099 14.7537 61.8718 15.2949C61.1895 16.4633 60.8543 17.8 60.9051 19.15C60.9051 22.211 61.8108 24.1393 63.6221 24.9349C64.1799 25.1408 64.7737 25.2329 65.3681 25.2057C66.0851 25.214 66.7925 25.0423 67.4249 24.7064C68.0173 24.3963 68.5234 23.9457 68.8984 23.3945C69.5712 22.3676 69.9076 20.9274 69.9076 19.0739C69.9161 16.5009 69.1184 14.7913 67.5144 13.9449Z" fill="#3A7BD5"/>
<path d="M83.0494 7.17397L81.4184 6.97931C81.0882 6.94152 80.7548 7.01645 80.4732 7.19179C80.1915 7.36712 79.9782 7.63244 79.8683 7.94416C79.6326 8.46044 79.5162 9.62982 79.5191 11.4523V11.9559H82.0742C82.2066 11.9476 82.3393 11.9674 82.4634 12.0141C82.5875 12.0608 82.7002 12.1333 82.7939 12.2267C82.9538 12.3847 83.0442 12.5993 83.0451 12.8234C83.0456 13.0446 82.9619 13.2577 82.8109 13.4201C82.7162 13.517 82.6009 13.5916 82.4734 13.6385C82.3459 13.6853 82.2095 13.7033 82.0742 13.691H79.5191V25.54C79.531 25.7035 79.5036 25.8674 79.4392 26.0182C79.3748 26.1691 79.2752 26.3025 79.1486 26.4075C78.9491 26.5828 78.6949 26.6844 78.4289 26.6953C78.2385 26.7013 78.0485 26.6756 77.8668 26.6191C77.7293 26.5707 77.6042 26.4926 77.5005 26.3906C77.3738 26.2895 77.2728 26.1602 77.2055 26.0132C77.1382 25.8662 77.1065 25.7056 77.113 25.5443V13.6952H75.0945C74.965 13.706 74.8347 13.6872 74.7137 13.6402C74.5926 13.5933 74.484 13.5194 74.3961 13.4243C74.2453 13.2618 74.1615 13.0488 74.1615 12.8277C74.1615 12.6065 74.2453 12.3935 74.3961 12.231C74.484 12.1359 74.5926 12.062 74.7137 12.0151C74.8347 11.9681 74.965 11.9494 75.0945 11.9601H77.113V10.3013C77.113 7.60138 77.8497 5.96931 79.3232 5.40507C79.7675 5.22835 80.2414 5.13646 80.72 5.13423C81.5864 5.13269 82.448 5.26255 83.2751 5.51933C83.4551 5.55895 83.614 5.66353 83.721 5.81283C83.828 5.96213 83.8754 6.14554 83.8542 6.3276C83.8539 6.53618 83.7868 6.73924 83.6626 6.90736C83.5902 6.9984 83.4965 7.07034 83.3895 7.11683C83.2826 7.16333 83.1657 7.18295 83.0494 7.17397Z" fill="#3A7BD5"/>
<path d="M87.3291 12.2521C87.2304 12.1511 87.1114 12.0718 86.9799 12.0194C86.8057 11.9618 86.6225 11.9359 86.439 11.9432C86.1696 11.957 85.9142 12.0667 85.7194 12.2521C85.5945 12.3621 85.4966 12.4989 85.4332 12.6522C85.3697 12.8055 85.3423 12.9712 85.3531 13.1366V25.4808C85.3382 25.6482 85.3618 25.8168 85.4223 25.9737C85.4829 26.1306 85.5786 26.2718 85.7023 26.3864C85.922 26.5753 86.2038 26.6777 86.4944 26.6742C86.8056 26.6759 87.1074 26.5679 87.3461 26.3695C87.4769 26.2622 87.5806 26.1259 87.6486 25.9716C87.7167 25.8172 87.7473 25.6491 87.7379 25.4808V13.1493C87.7536 12.9774 87.7241 12.8044 87.6525 12.6472C87.5808 12.4899 87.4694 12.3538 87.3291 12.2521Z" fill="#3A7BD5"/>
<path d="M91.4556 13.035C91.4451 12.8803 91.4735 12.7255 91.5382 12.5844C91.6028 12.4433 91.7018 12.3204 91.8261 12.2267C92.1305 12.0301 92.49 11.9352 92.8524 11.9559C93.6814 11.9559 94.0178 12.7656 93.8617 14.385C94.4579 13.1493 95.5935 12.2874 97.2685 11.7993C97.8265 11.668 98.3985 11.6041 98.9719 11.6089C99.6132 11.6131 100.249 11.7232 100.854 11.9347C101.489 12.1517 102.07 12.5009 102.558 12.9588C103.619 13.9632 104.149 15.4415 104.146 17.3938V25.5696C104.158 25.7317 104.129 25.8941 104.061 26.042C103.993 26.1899 103.889 26.3185 103.758 26.416C103.51 26.5921 103.212 26.6854 102.907 26.6826C102.61 26.6834 102.323 26.5817 102.093 26.3948C101.967 26.2943 101.867 26.1646 101.803 26.0172C101.738 25.8697 101.711 25.7088 101.723 25.5485V17.1991C101.723 15.402 101.013 14.2326 99.5936 13.6909C99.1386 13.5301 98.6584 13.4513 98.1756 13.4582C97.6246 13.4639 97.0793 13.5685 96.5659 13.7671C96.0563 13.9554 95.5837 14.2303 95.1691 14.5796C94.289 15.3498 93.8489 16.5319 93.8489 18.1259V25.5696C93.8609 25.7317 93.8317 25.8941 93.764 26.042C93.6963 26.1899 93.5922 26.3185 93.4614 26.416C93.2121 26.5903 92.9145 26.6834 92.6097 26.6826C92.311 26.6885 92.0204 26.5862 91.7921 26.3948C91.6718 26.2903 91.5777 26.1594 91.5171 26.0126C91.4565 25.8657 91.4311 25.7068 91.4429 25.5485L91.4556 13.035Z" fill="#3A7BD5"/>
<path d="M119.685 26.6869C119.531 26.702 119.376 26.6857 119.229 26.6388C119.081 26.592 118.945 26.5157 118.829 26.4146C118.712 26.3135 118.618 26.1897 118.551 26.051C118.485 25.9122 118.447 25.7614 118.442 25.6078V24.2197C117.853 25.1259 117.037 25.8639 116.074 26.361C115.142 26.7963 114.122 27.0135 113.093 26.9958C112.108 27.0244 111.132 26.7984 110.261 26.3399C109.49 25.9215 108.83 25.3268 108.336 24.6048C107.321 23.0023 106.808 21.136 106.863 19.2431C106.863 17.1103 107.368 15.3499 108.379 13.9618C109.463 12.3904 111.055 11.6061 113.153 11.6089C114.725 11.5729 116.259 12.1018 117.471 13.0985C117.863 13.4378 118.192 13.8432 118.442 14.2961V6.55617C118.431 6.40148 118.46 6.24662 118.524 6.10553C118.589 5.96444 118.688 5.84154 118.812 5.74789C119.057 5.56438 119.357 5.46888 119.664 5.47705C119.973 5.47056 120.275 5.57245 120.516 5.76482C120.636 5.85805 120.733 5.97844 120.797 6.11604C120.861 6.25364 120.892 6.40451 120.886 6.55617V25.5697C120.898 25.7301 120.871 25.8909 120.806 26.0384C120.742 26.1858 120.642 26.3155 120.516 26.4161C120.278 26.5977 119.985 26.6933 119.685 26.6869ZM116.019 13.9449C115.349 13.6189 114.609 13.4591 113.864 13.4794C113.121 13.4529 112.385 13.6269 111.735 13.983C111.181 14.3033 110.714 14.7537 110.376 15.2949C109.694 16.4633 109.359 17.8 109.409 19.15C109.409 22.211 110.315 24.1393 112.126 24.9349C112.684 25.1408 113.278 25.2329 113.872 25.2057C114.589 25.214 115.297 25.0423 115.929 24.7064C116.521 24.3952 117.027 23.9448 117.403 23.3945C118.075 22.3676 118.412 20.9274 118.412 19.0739C118.406 16.5009 117.608 14.7913 116.019 13.9449Z" fill="#3A7BD5"/>
<path d="M137.588 18.858C137.593 19.0811 137.508 19.2971 137.354 19.4589C137.255 19.5492 137.139 19.6181 137.012 19.6611C136.885 19.7041 136.751 19.7202 136.617 19.7086H125.907C125.958 21.6129 126.46 22.984 127.419 23.8346C128.366 24.7118 129.616 25.1948 130.911 25.1845C132.307 25.1845 133.795 24.6697 135.374 23.6399C135.557 23.4962 135.783 23.416 136.017 23.4114C136.116 23.4077 136.214 23.4264 136.305 23.4659C136.396 23.5055 136.476 23.565 136.54 23.6399C136.657 23.7679 136.725 23.9327 136.732 24.1054C136.737 24.2482 136.711 24.3904 136.658 24.5229C136.604 24.6555 136.524 24.7756 136.421 24.8756C134.873 26.2963 132.825 27.0561 130.719 26.9915C129.762 27.0303 128.808 26.8683 127.919 26.5161C127.03 26.1639 126.225 25.6295 125.558 24.9476C124.831 24.2039 124.264 23.3219 123.89 22.3546C123.516 21.3873 123.343 20.3548 123.382 19.3193C123.313 17.3667 123.963 15.4563 125.208 13.9449C125.85 13.1771 126.66 12.5669 127.578 12.1617C128.495 11.7565 129.494 11.5673 130.498 11.6089C132.8 11.6089 134.573 12.3029 135.816 13.6909C136.946 14.9887 137.537 16.711 137.588 18.858ZM135.22 18.1767C135.187 16.9165 134.721 15.7056 133.9 14.7447C133.125 13.8983 131.997 13.4751 130.523 13.4751C129.923 13.459 129.326 13.575 128.776 13.815C128.226 14.055 127.736 14.4129 127.342 14.8632C126.53 15.7864 126.052 16.9526 125.984 18.1767H135.22Z" fill="#3A7BD5"/>
<path d="M141.595 11.9559C141.748 11.9341 141.904 11.9479 142.051 11.9963C142.197 12.0447 142.331 12.1262 142.44 12.2346C142.55 12.3429 142.632 12.4751 142.681 12.6206C142.731 12.7662 142.745 12.9211 142.724 13.0731V14.3681C143.368 12.5173 144.727 11.592 146.799 11.592C146.962 11.5819 147.125 11.6056 147.279 11.6617C147.432 11.7178 147.572 11.8051 147.689 11.9178C147.884 12.106 147.996 12.3631 148 12.633C147.998 12.893 147.894 13.142 147.71 13.327C147.397 13.5718 146.999 13.6829 146.603 13.636C146.062 13.6357 145.527 13.7467 145.032 13.9618C144.541 14.1632 144.104 14.4746 143.754 14.8716C143.017 15.8432 142.646 17.0415 142.707 18.2571V25.5443C142.718 25.7062 142.688 25.8684 142.621 26.0162C142.553 26.1639 142.449 26.2926 142.319 26.3906C142.111 26.5646 141.85 26.6657 141.578 26.6784C141.389 26.6836 141.2 26.6651 141.016 26.6234C140.884 26.589 140.76 26.5301 140.65 26.4499C140.53 26.3362 140.436 26.1977 140.376 26.0441C140.315 25.8906 140.29 25.7257 140.301 25.5612V13.0731C140.288 12.9132 140.315 12.7526 140.379 12.6053C140.443 12.4579 140.542 12.328 140.667 12.2268C140.936 12.0327 141.264 11.937 141.595 11.9559Z" fill="#3A7BD5"/>
</g>
<defs>
<clipPath id="clip0">
<rect width="148" height="21.87" fill="white" transform="translate(0 5.13)"/>
</clipPath>
</defs>
</svg>
