<svg width="262" height="335" viewBox="0 0 262 335" fill="none" xmlns="http://www.w3.org/2000/svg">
<path fill-rule="evenodd" clip-rule="evenodd" d="M88.6169 49.9979C84.1426 44.7459 81.1142 38.3096 81.6203 31.0974C83.0783 10.3173 112.005 14.8886 117.632 25.3767C123.259 35.8647 122.59 62.4685 115.318 64.343C112.418 65.0905 106.24 63.2593 99.9516 59.4693L103.898 87.3915H80.5941L88.6169 49.9979Z" fill="#B28B67"/>
<path fill-rule="evenodd" clip-rule="evenodd" d="M127.956 10.8373C127.473 9.14096 126.175 7.68857 124.426 7.25769C124.002 7.15317 123.564 7.11096 123.127 7.12856C122.971 7.13481 122.927 7.17995 122.854 7.07046C122.799 6.98929 122.798 6.79097 122.776 6.69557C122.706 6.39892 122.619 6.10597 122.512 5.82061C122.146 4.84731 121.531 3.98593 120.789 3.26031C119.402 1.90281 117.528 0.965923 115.582 0.796427C114.516 0.703708 113.458 0.876839 112.451 1.22348C111.929 1.40293 111.423 1.62637 110.931 1.87341C110.782 1.94776 110.301 2.31195 110.152 2.28835C109.988 2.26233 109.658 1.85383 109.524 1.75129C107.872 0.483771 105.832 -0.0145785 103.774 0.000323736C101.451 0.0178158 99.2148 0.133874 97.2777 1.54979C96.8676 1.84956 96.4771 2.17778 96.1052 2.52334C95.9094 2.70527 95.7198 2.89402 95.5389 3.09062C95.4297 3.20923 95.3235 3.33052 95.2212 3.45506C95.0476 3.66645 95.0754 3.73589 94.8324 3.5884C93.9002 3.02201 92.8198 2.75711 91.7317 2.89083C91.0856 2.97029 90.4569 3.16427 89.86 3.4196C89.6568 3.50652 89.1863 3.85322 88.9697 3.8566C88.7548 3.85992 88.291 3.53853 88.0697 3.45684C86.8741 3.0155 85.5855 2.90671 84.3289 3.11064C83.0326 3.32108 81.7593 3.83824 80.6611 4.55289C80.1328 4.89667 79.672 5.27755 79.3018 5.78872C79.1419 6.00942 78.9975 6.24288 78.8163 6.44751C78.7102 6.56733 78.5002 6.69028 78.4433 6.84192C78.4774 6.75111 77.0257 6.19148 76.8887 6.15571C76.1589 5.96511 75.4158 6.00375 74.7012 6.23893C73.3574 6.68116 72.2017 7.67288 71.2519 8.68967C70.7641 9.21193 70.3372 9.78923 69.9748 10.4043C69.8012 10.6989 69.6423 11.0019 69.497 11.3114C69.4266 11.4613 69.38 11.6488 69.2872 11.7839C69.1676 11.9579 69.0873 11.9612 68.8707 12.0371C67.771 12.4224 66.7684 13.0746 66.0049 13.9558C65.2327 14.8473 64.7316 15.9452 64.5215 17.1014C64.5092 17.1695 64.5018 17.4518 64.4619 17.4886C64.4073 17.5394 64.1861 17.5169 64.1025 17.5267C63.8127 17.5607 63.5251 17.6113 63.2412 17.6785C62.718 17.8024 62.2087 17.9846 61.727 18.223C59.849 19.1521 58.506 20.8941 57.8488 22.8542C57.1591 24.9112 57.1713 27.2679 57.9956 29.2866C58.1288 29.6126 58.2872 29.9291 58.4733 30.2285C58.5875 30.4123 58.6244 30.4127 58.5502 30.6056C58.4675 30.8201 58.3164 31.0285 58.2182 31.2381C57.8979 31.9222 57.6739 32.6477 57.5324 33.3887C57.3003 34.6042 57.1853 35.8815 57.4143 37.1062C57.5206 37.6749 57.7058 38.2309 57.9884 38.7374C58.1325 38.9956 58.3011 39.2406 58.4915 39.4671C58.5903 39.5848 58.6953 39.6971 58.8051 39.8048C58.8679 39.8663 58.9502 39.9201 59.0036 39.9888C59.1339 40.1562 59.1613 40.0185 59.0941 40.2644C59.0001 40.6082 58.7871 40.9474 58.6567 41.2819C58.5222 41.6266 58.4007 41.9761 58.2896 42.329C58.0645 43.0436 57.8742 43.7711 57.7552 44.5111C57.5267 45.932 57.5669 47.4459 58.2389 48.7499C58.5263 49.3077 58.9385 49.797 59.4385 50.1776C59.6832 50.3638 59.9483 50.5243 60.2263 50.6561C60.3692 50.724 60.5517 50.753 60.6168 50.8912C60.687 51.0398 60.5828 51.3349 60.5591 51.501C60.3525 52.9461 60.2488 54.4634 60.6784 55.8796C61.0741 57.184 61.9452 58.3356 63.0762 59.0981C65.2703 60.5772 68.2279 60.4938 70.5334 59.3097C71.1343 59.001 71.6965 58.6177 72.1981 58.1657C73.4752 59.8849 76.1032 59.8305 77.9697 59.3406C80.2951 58.7303 82.1611 57.1134 83.2361 54.9889C84.7062 56.7784 87.7913 56.1978 88.8107 54.2564C89.0602 53.7813 89.2082 53.2576 89.281 52.7277C89.3194 52.449 89.2949 52.1679 89.3237 51.8915C89.3604 51.5392 89.5958 51.1969 89.731 50.8562C89.9944 50.193 90.158 49.5079 90.165 48.7925C90.1687 48.4191 90.1214 48.0551 90.0858 47.6846C90.0539 47.3511 90.1464 47.0403 90.1989 46.7112C89.6025 46.8094 88.8759 46.6485 88.3141 46.4756C87.7627 46.3059 87.2462 45.859 86.857 45.4508C85.9534 44.5029 85.4013 43.2604 85.0238 42.0237C84.195 39.3095 84.5347 36.053 87.2648 34.5634C88.5366 33.8695 92.3467 33.8718 93.8614 34.2147C95.4541 34.5753 97.2597 38.0897 97.3485 38.42C97.4035 38.6244 97.3759 38.8775 97.5637 39.0137C97.9764 39.3132 98.6571 38.7934 98.9616 38.5369C99.4869 38.0941 99.8616 37.505 100.186 36.9079C100.893 35.607 101.463 34.212 101.866 32.7878C102.177 31.6899 102.375 30.5577 102.781 29.4877C103.185 28.423 103.821 27.4714 104.811 26.8683C105.887 26.2122 107.122 25.8666 108.303 25.4543C109.475 25.0457 110.626 24.5462 111.534 23.6792C111.734 23.4885 111.928 23.2859 112.089 23.0615C112.216 22.8842 112.341 22.545 112.534 22.4326C112.835 22.2578 113.273 22.7124 113.533 22.8774C114.816 23.6917 115.885 24.8275 116.748 26.0681C117.606 27.302 118.31 28.4894 118.882 29.8672C119.306 30.8891 119.571 32.1978 120.317 33.0353C120.651 33.4092 123.127 33.6354 123.929 33.309C124.732 32.9825 125.631 32.1348 125.9 31.6035C126.176 31.0598 126.241 30.4625 126.124 29.8672C126.054 29.517 125.913 29.1898 125.836 28.8459C125.77 28.5569 125.711 28.2838 125.571 28.0191C125.304 27.5175 124.849 27.157 124.3 27.0062C124.871 26.4793 125.345 25.849 125.672 25.1443C126.013 24.4123 126.301 23.522 126.383 22.7185C126.45 22.0659 126.347 21.3898 125.99 20.8289C125.615 20.2406 124.951 19.8568 124.377 19.4898C125.254 18.8033 126.005 17.9683 126.622 17.044C127.823 15.2463 128.566 12.9804 127.956 10.8373Z" fill="#191847"/>
<path fill-rule="evenodd" clip-rule="evenodd" d="M15.5362 208.768H127.203C135.783 208.768 142.739 215.724 142.739 224.304V313.638C142.739 322.218 135.783 329.174 127.203 329.174H15.5362C6.9558 329.174 0 322.218 0 313.638V224.304C0 215.724 6.9558 208.768 15.5362 208.768ZM31.0724 235.957C28.9273 235.957 27.1884 237.696 27.1884 239.841V298.102C27.1884 300.247 28.9273 301.986 31.0724 301.986H111.667C113.812 301.986 115.551 300.247 115.551 298.102V239.841C115.551 237.696 113.812 235.957 111.667 235.957H31.0724Z" fill="#C5CFD6"/>
<path fill-rule="evenodd" clip-rule="evenodd" d="M212.175 325.931C199.734 298.394 190.737 274.417 187.125 261.766C180.941 240.105 176.237 221.045 175.048 213.927C172.213 196.953 196.859 195.965 200.116 204.401C205.047 217.168 213.655 259.118 223.998 322.481L212.175 325.931ZM67.8626 239.514C79.2775 235.002 119.252 220.882 138.532 216.887C144.072 215.739 149.442 214.673 154.49 213.709C169.496 210.844 177.271 237.916 162.818 239.996C126.826 245.176 75.8001 250.525 71.4334 251.125C65.3134 251.967 60.6886 242.35 67.8626 239.514Z" fill="#B28B67"/>
<path fill-rule="evenodd" clip-rule="evenodd" d="M163.7 206.259L101.956 174.828V167.986H109.299C169.034 183.207 199.558 192.962 200.872 197.25C200.886 197.296 200.899 197.342 200.911 197.389C200.941 197.428 200.971 197.468 201 197.508C212.838 213.788 219.928 293.273 222.255 299.224L199.57 302.608C190.893 270.431 163.13 248.015 163.868 209.476C163.669 208.346 163.618 207.274 163.7 206.259Z" fill="#1F28CF"/>
<path fill-rule="evenodd" clip-rule="evenodd" d="M107.087 224.926C101.437 223.796 96.2346 222.786 91.7829 222.005C63.0279 216.962 54.6426 201.569 59.6004 167.986H112.581C121.236 170.472 166.212 189.333 189.548 199.365C204.993 206.005 200.125 229.941 191.378 236.17C191.331 236.552 191.173 236.812 190.893 236.928C143.843 256.428 106.622 246.196 94.1884 249.466L88.4372 231.323L107.087 224.926Z" fill="#2B44FF"/>
<path fill-rule="evenodd" clip-rule="evenodd" d="M71.7653 236.63C68.6827 236.925 66.4944 237.388 65.2004 238.019C63.6266 238.787 61.4579 240.169 58.6943 242.166C59.5848 243.992 67.5875 260.4 82.7025 291.39C87.5553 290.607 89.4782 288.755 88.4712 285.835C87.4642 282.914 86.652 280.476 86.0347 278.521L85.0754 250.667C85.0569 250.131 84.6075 249.712 84.0715 249.73C84.0624 249.731 84.0532 249.731 84.0441 249.732L79.7594 250.001C77.3246 248.03 75.7183 246.247 74.9403 244.652C74.3082 243.356 73.9587 241.311 73.8917 238.517L73.8917 238.517C73.8661 237.445 72.976 236.596 71.9037 236.622C71.8575 236.623 71.8114 236.626 71.7653 236.63Z" fill="#E4E4E4"/>
<path fill-rule="evenodd" clip-rule="evenodd" d="M206.513 320.825C205.427 323.725 204.884 325.895 204.884 327.335C204.884 329.086 205.175 331.641 205.759 335C207.79 335 226.046 335 260.526 335C261.949 330.295 261.127 327.755 258.061 327.38C254.995 327.005 252.448 326.666 250.419 326.364L224.964 315.016C224.475 314.797 223.9 315.017 223.682 315.507C223.678 315.515 223.675 315.524 223.671 315.532L222.035 319.501C219.196 320.826 216.89 321.488 215.115 321.488C213.673 321.488 211.682 320.906 209.141 319.741L209.141 319.741C208.166 319.294 207.013 319.722 206.567 320.697C206.547 320.739 206.529 320.782 206.513 320.825Z" fill="#E4E4E4"/>
<path fill-rule="evenodd" clip-rule="evenodd" d="M158.318 152.568L185.825 179.402C193.829 182.816 200.386 186.586 205.498 190.711C206.648 192.098 207.899 194.755 202.49 193.566C197.082 192.377 191.339 191.37 190.322 193.129C189.306 194.888 192.301 197.583 190.423 199.885C189.17 201.42 184.958 196.538 177.786 185.24L149.182 168.377L158.318 152.568ZM36.2265 156.353L56.5181 156.433C43.989 196.879 37.2251 218.34 36.2265 220.814C33.9796 226.383 38.7343 234.863 40.7676 239.42C34.1452 242.384 34.8508 231.409 26.4969 235.296C18.8718 238.843 13.0715 245.271 4.26178 239.835C3.17868 239.167 1.99178 236.651 4.85948 234.684C12.004 229.785 22.2996 221.212 23.6907 218.389C25.5877 214.541 29.7663 193.862 36.2265 156.353Z" fill="#B28B67"/>
<path fill-rule="evenodd" clip-rule="evenodd" d="M93.8921 71.2068L102.289 69.7666C116.745 105.879 141.983 138.691 178.005 168.204L150.785 201.273C114.768 159.251 92.5669 115.896 93.8921 71.2068Z" fill="#191847"/>
<path fill-rule="evenodd" clip-rule="evenodd" d="M57.2898 176.725H132.058C114.736 134.607 106.075 98.8289 106.075 69.3897L83.521 66.0293C65.7958 94.5367 60.7901 129.635 57.2898 176.725Z" fill="#DDE3E9"/>
<path fill-rule="evenodd" clip-rule="evenodd" d="M83.0434 66.0452C83.0464 66.0399 83.0494 66.0346 83.0523 66.0293H84.5245C86.2862 66.09 88.9694 66.1993 92.5742 66.3572L98.024 81.9315C98.6004 100.92 101.967 139.188 108.123 196.734H59.1115C59.24 200.708 59.4518 204.72 59.747 208.768H23.3043C28.7555 147.268 48.6626 99.6885 83.0255 66.0293L83.0434 66.0452V66.0452Z" fill="#2F3676"/>
<path fill-rule="evenodd" clip-rule="evenodd" d="M62.349 145.879C63.7439 170.654 67.2362 187.733 72.826 197.116H59.1242C58.5243 179.291 59.5992 162.212 62.349 145.879V145.879Z" fill="black" fill-opacity="0.1"/>
<path fill-rule="evenodd" clip-rule="evenodd" d="M70.0206 167.015L94.1883 155.779V167.015H70.0206Z" fill="white" fill-opacity="0.2"/>
</svg>
